<svg width="200" height="200" viewBox="0 0 200 200" fill="none" xmlns="http://www.w3.org/2000/svg">
<rect width="200" height="200" rx="4" fill="black"/>
<path fill-rule="evenodd" clip-rule="evenodd" d="M10.2329 10.7727C10.0652 11.1972 10.0103 12.2411 10.1101 13.0918L10.2923 14.6383L34.1225 14.9378L57.9527 15.2374L62.4384 16.6971C68.318 18.6108 73.2601 21.5171 77.3639 25.4738C80.5045 28.5018 83.9068 33.2164 83.3456 33.7621C83.2048 33.8991 81.4711 32.7444 79.4924 31.1958C75.2814 27.8999 68.4615 24.5745 62.6413 22.9784C58.8414 21.9362 56.6524 21.8276 35.0785 21.6066C10.1583 21.3512 10.0119 21.3648 10.0119 23.9372C10.0119 27.0825 8.70717 26.916 33.3711 26.916C59.3152 26.916 60.9088 27.0999 69.1669 31.0495C74.8727 33.7785 79.3971 37.4067 83.1476 42.2627C86.8091 47.003 86.379 47.6791 81.9231 44.1862C75.0185 38.7736 67.0586 35.2916 58.6945 34.0268C55.9846 33.6164 47.0609 33.462 32.4477 33.5711C11.5175 33.7277 10.2968 33.7916 10.1101 34.7351C10.0013 35.284 10.0658 36.3279 10.253 37.0542L10.594 38.3753L32.3108 38.3944C55.6112 38.4146 59.0999 38.7087 66.2187 41.2515C71.9547 43.3006 75.9543 45.8467 80.9878 50.653C84.9273 54.4144 87.8957 58.2691 87.2913 58.8377C87.1915 58.9315 85.1942 57.5973 82.8533 55.8735C74.2307 49.5235 66.4104 46.4628 56.2706 45.4696C52.6086 45.1106 42.0156 44.9327 30.1975 45.0309L10.2923 45.1963L10.1056 46.4797C10.003 47.1853 10.068 48.3399 10.2497 49.0449L10.5805 50.3273L35.1077 50.5117C62.2646 50.7158 62.2645 50.7158 70.5188 54.505C76.03 57.0348 80.9912 60.5418 84.6661 64.5051C87.8402 67.9287 90.0281 71.116 89.2039 71.116C88.9331 71.116 86.9633 69.7485 84.8264 68.0776C80.2056 64.4631 71.4697 60.1839 65.2419 58.4852C60.9609 57.3174 59.6118 57.2519 35.6841 57.0593L10.6125 56.8579L10.2626 58.214C10.0703 58.9599 10.0013 60.0196 10.1095 60.5686C10.2957 61.5115 11.6492 61.5835 34.6905 61.8716C57.2198 62.1532 59.3976 62.264 63.3316 63.3281C71.2578 65.4715 78.2151 69.1363 84.0493 74.2411C87.3647 77.1425 92.0467 82.8944 91.7641 83.7195C91.6559 84.0349 90.4386 83.3321 89.0581 82.1567C80.9844 75.2822 70.9124 70.7886 59.9813 69.1854C55.9739 68.5971 48.9381 68.393 32.5912 68.3909L10.594 68.3876L10.2424 69.7518C10.0489 70.5021 10.0489 71.7299 10.2424 72.4802L10.594 73.8444L34.5537 73.8482C56.584 73.8515 58.8908 73.9399 63.1981 74.945C75.8141 77.8884 86.4839 85.0253 94.2884 95.7408C95.7367 97.7298 96.9221 99.697 96.9221 100.112C96.9221 101.537 91.6929 108.497 87.8369 112.204C80.7966 118.973 72.0248 123.603 62.2567 125.705C57.8955 126.643 54.9691 126.753 33.993 126.763L10.594 126.775L10.253 128.096C10.0658 128.823 10.0018 129.866 10.1106 130.415C10.299 131.365 11.5601 131.413 36.3737 131.4L62.4384 131.386L67.3625 129.896C75.3902 127.468 83.0669 123.412 88.8434 118.547C93.2668 114.82 92.5962 116.99 87.5279 122.799C82.1361 128.979 72.2878 134.772 62.9991 137.225C58.8313 138.327 56.8049 138.434 34.4101 138.732C11.6475 139.035 10.2957 139.109 10.1095 140.051C10.0013 140.6 10.0658 141.644 10.253 142.37L10.594 143.691H32.691C45.5481 143.691 56.6216 143.443 59.1739 143.097C68.5613 141.827 79.4442 137.069 86.2854 131.245C90.9376 127.285 90.5176 129.305 85.4718 135.158C81.3382 139.953 73.6397 145.208 67.7606 147.249C60.121 149.901 60.2168 149.893 34.6832 150.209L10.2923 150.512V152.695V154.878L33.0011 155.043C48.3337 155.155 57.0746 155.003 59.9118 154.573C68.2058 153.318 77.9779 148.959 84.0055 143.828C87.1253 141.172 87.9535 141.07 86.6274 143.504C83.9798 148.365 76.4051 154.639 69.242 157.906C60.9738 161.677 60.0918 161.783 33.8421 162.17L10.2923 162.517V164.7V166.883L31.5993 167.056C53.8786 167.237 59.2928 166.893 65.7796 164.887C70.8602 163.316 76.88 160.191 81.0405 156.964C83.1005 155.367 85.0098 154.059 85.2828 154.059C86.2865 154.059 83.0888 158.649 79.8204 161.899C73.864 167.824 67.5919 171.156 59.2339 172.835C55.7126 173.543 50.8356 173.704 32.8043 173.704C8.79688 173.704 10.0119 173.547 10.0119 176.64C10.0119 179.129 10.2749 179.161 30.7302 179.151C50.6051 179.141 57.6791 178.73 63.5598 177.243C68.3264 176.037 75.3745 172.519 79.4924 169.29C81.4274 167.773 83.1314 166.648 83.2789 166.792C83.853 167.351 81.5855 170.613 78.182 174.123C74.003 178.434 69.2241 181.348 62.9991 183.383L58.5134 184.848L34.4028 185.142L10.2923 185.436V187.618V189.801L33.0011 189.957C57.5024 190.124 60.3122 189.913 66.9577 187.402C76.6428 183.742 84.3476 177.061 88.9925 168.295C91.7086 163.17 92.5446 160.335 94.3972 149.967C95.2012 145.465 96.2341 139.694 96.6922 137.143C97.8035 130.958 99.0898 123.655 100.008 118.317C103.229 99.5982 103.135 99.9654 105.671 96.3192C110.664 89.1425 118.53 82.4219 126.46 78.559C135.322 74.2422 135.655 74.2007 164.207 73.8684L189.72 73.5715V71.116V68.6604L168.693 68.5C145.605 68.3237 139.151 68.7548 131.992 70.9512C124.904 73.1263 117.578 77.0186 111.899 81.6257C106.108 86.324 109.08 81.1319 115.667 75.0421C120.38 70.6854 126.547 66.8062 131.843 64.8663C139.127 62.198 143.366 61.8394 167.645 61.8394H190V59.3839V56.9283L166.59 56.9474C142.018 56.9676 138.429 57.2334 131.406 59.5563C126.862 61.0591 119.282 65.1959 114.98 68.5213C113.039 70.0213 111.311 71.1133 111.141 70.9479C110.596 70.4175 114.069 66.0341 117.762 62.5919C123.39 57.3463 129.789 53.7116 137.013 51.6576C139.911 50.8337 143.797 50.6601 165.048 50.4042L189.72 50.1074V47.6518V45.1963L169.534 45.0358C157.369 44.9387 147.12 45.1144 143.741 45.4778C132.663 46.6685 124.651 49.9988 115.846 57.0729C112.335 59.8936 112.38 58.627 115.951 54.1356C122.442 45.9706 131.814 40.7097 143.02 38.9401C144.978 38.6312 156.203 38.3818 168.272 38.3796L190 38.3753V35.9197V33.4642H167.114C153.604 33.4642 142.864 33.6994 140.901 34.0377C132.685 35.4532 124.689 39.1141 118.119 44.4678C112.288 49.2179 114.822 44.2741 121.545 37.7816C127.065 32.4503 131.803 29.8278 139.205 28.0068C143.286 27.0033 145.496 26.916 166.82 26.916H190V24.4708C190 22.3323 189.828 21.9836 188.629 21.6912C187.875 21.5067 176.962 21.4603 164.378 21.5875L141.499 21.8183L136.467 23.3085C130.38 25.112 126.487 27.0754 121.145 31.0364C116.488 34.489 116 33.9575 119.535 29.2837C124.15 23.183 131.41 18.3603 139.256 16.1842C142.128 15.3875 146.086 15.2211 166.31 15.0443L190 14.8369V12.4184V10L168.833 10.0169C145.949 10.0349 141.808 10.3361 134.662 12.5036C122.991 16.0439 111.937 27.1932 108.473 38.921C107.685 41.5893 106.371 48.3235 103.948 62.1123C103.527 64.5133 102.771 68.8105 102.268 71.6617C101.767 74.5128 101.208 77.7667 101.028 78.8919C100.847 80.0176 100.509 80.9382 100.276 80.9382C99.7677 80.9382 99.7396 80.8012 96.9209 64.5678C91.759 34.8382 90.2356 30.7047 81.2407 22.0049C74.3501 15.3411 66.7216 11.8193 56.469 10.5681C53.9088 10.2554 42.527 10 31.176 10C13.8954 10 10.488 10.1255 10.2329 10.7727Z" fill="white"/>
</svg>
