<svg width="93" height="23" viewBox="0 0 93 23" fill="none" xmlns="http://www.w3.org/2000/svg">
<path d="M10.6945 11.736L8.16253 8.148L5.57053 11.736H10.6945ZM9.39853 11.088H6.85453L8.13853 9.288L9.39853 11.088ZM12.4825 14.34L11.1865 12.48H5.05453C4.83053 12.784 4.61053 13.096 4.39453 13.416C4.18653 13.728 3.97053 14.036 3.74653 14.34H2.78653C3.63453 13.148 4.47853 11.968 5.31853 10.8C6.16653 9.632 7.01053 8.452 7.85053 7.26H8.42653L13.3825 14.34H12.4825ZM7.52653 6.588L1.52653 15.012H4.07053L5.39053 13.152H10.8145L12.1225 15.012H14.6665L8.78653 6.588H7.52653ZM10.1305 7.524L16.3705 16.476H13.1785L11.9665 15.312L11.4745 14.616H6.73453C6.63853 14.76 6.53053 14.912 6.41053 15.072C6.29853 15.232 6.18253 15.392 6.06253 15.552C5.95053 15.72 5.83853 15.88 5.72653 16.032C5.61453 16.192 5.51053 16.34 5.41453 16.476H2.21053L0.938531 15.312L7.37053 6.288H8.94253L10.1305 7.524ZM17.4304 12.696C17.6864 12.944 17.9704 13.132 18.2824 13.26C18.5944 13.388 18.9184 13.48 19.2544 13.536C19.5904 13.584 19.9344 13.612 20.2864 13.62C20.6384 13.62 20.9784 13.62 21.3064 13.62C21.4264 13.62 21.5864 13.616 21.7864 13.608C21.9944 13.6 22.2144 13.584 22.4464 13.56C22.6864 13.528 22.9264 13.488 23.1664 13.44C23.4064 13.384 23.6224 13.312 23.8144 13.224C24.0144 13.136 24.1744 13.032 24.2944 12.912C24.4224 12.784 24.4864 12.632 24.4864 12.456C24.4864 12.28 24.4184 12.128 24.2824 12C24.1544 11.864 23.9864 11.748 23.7784 11.652C23.5704 11.556 23.3344 11.476 23.0704 11.412C22.8144 11.34 22.5584 11.288 22.3024 11.256C22.0464 11.216 21.8064 11.188 21.5824 11.172C21.3664 11.156 21.1904 11.148 21.0544 11.148H21.0664C20.8744 11.14 20.6384 11.12 20.3584 11.088C20.0784 11.056 19.7864 11.008 19.4824 10.944C19.1784 10.88 18.8744 10.8 18.5704 10.704C18.2664 10.6 17.9944 10.476 17.7544 10.332C17.5144 10.188 17.3184 10.02 17.1664 9.828C17.0144 9.628 16.9384 9.4 16.9384 9.144C16.9384 8.864 17.0104 8.624 17.1544 8.424C17.3064 8.224 17.4984 8.056 17.7304 7.92C17.9704 7.776 18.2384 7.664 18.5344 7.584C18.8304 7.496 19.1304 7.428 19.4344 7.38C19.7384 7.332 20.0264 7.3 20.2984 7.284C20.5784 7.268 20.8144 7.26 21.0064 7.26C21.3184 7.26 21.6344 7.276 21.9544 7.308C22.2824 7.332 22.6024 7.38 22.9144 7.452C23.2264 7.524 23.5304 7.624 23.8264 7.752C24.1224 7.872 24.3944 8.028 24.6424 8.22L24.0064 8.676C23.7744 8.516 23.5304 8.392 23.2744 8.304C23.0184 8.208 22.7544 8.136 22.4824 8.088C22.2104 8.04 21.9344 8.012 21.6544 8.004C21.3744 7.988 21.1024 7.98 20.8384 7.98C20.6544 7.98 20.4024 7.992 20.0824 8.016C19.7704 8.04 19.4584 8.092 19.1464 8.172C18.8424 8.244 18.5784 8.36 18.3544 8.52C18.1304 8.672 18.0184 8.88 18.0184 9.144C18.0184 9.4 18.1264 9.608 18.3424 9.768C18.5584 9.92 18.8424 10.044 19.1944 10.14C19.5464 10.228 19.9464 10.3 20.3944 10.356C20.8504 10.404 21.3144 10.456 21.7864 10.512C22.2584 10.568 22.7184 10.636 23.1664 10.716C23.6224 10.788 24.0264 10.896 24.3784 11.04C24.7304 11.176 25.0144 11.36 25.2304 11.592C25.4464 11.816 25.5544 12.104 25.5544 12.456C25.5544 12.704 25.4784 12.924 25.3264 13.116C25.1824 13.308 24.9904 13.476 24.7504 13.62C24.5104 13.756 24.2384 13.872 23.9344 13.968C23.6384 14.056 23.3384 14.128 23.0344 14.184C22.7384 14.24 22.4544 14.28 22.1824 14.304C21.9104 14.328 21.6864 14.34 21.5104 14.34H20.6104C20.2824 14.34 19.9384 14.328 19.5784 14.304C19.2184 14.28 18.8664 14.228 18.5224 14.148C18.1784 14.06 17.8504 13.94 17.5384 13.788C17.2264 13.636 16.9504 13.428 16.7104 13.164L17.4304 12.696ZM15.7144 12.912C16.0344 13.432 16.4144 13.836 16.8544 14.124C17.2944 14.404 17.7704 14.612 18.2824 14.748C18.7944 14.876 19.3224 14.952 19.8664 14.976C20.4184 15 20.9664 15.012 21.5104 15.012C21.7504 15.012 22.0344 14.996 22.3624 14.964C22.6904 14.924 23.0304 14.864 23.3824 14.784C23.7344 14.704 24.0784 14.6 24.4144 14.472C24.7584 14.336 25.0624 14.176 25.3264 13.992C25.5984 13.8 25.8144 13.58 25.9744 13.332C26.1424 13.076 26.2264 12.784 26.2264 12.456C26.2264 12.064 26.1384 11.732 25.9624 11.46C25.7944 11.18 25.5704 10.948 25.2904 10.764C25.0184 10.572 24.7024 10.42 24.3424 10.308C23.9904 10.188 23.6264 10.096 23.2504 10.032C22.8744 9.968 22.5064 9.92 22.1464 9.888C21.7864 9.856 21.4664 9.828 21.1864 9.804C21.0904 9.796 20.9064 9.78 20.6344 9.756C20.3624 9.724 20.0824 9.684 19.7944 9.636C19.5064 9.58 19.2504 9.512 19.0264 9.432C18.8024 9.352 18.6904 9.256 18.6904 9.144C18.6904 9.016 18.7944 8.92 19.0024 8.856C19.2104 8.792 19.4464 8.744 19.7104 8.712C19.9824 8.68 20.2424 8.664 20.4904 8.664C20.7464 8.656 20.9184 8.652 21.0064 8.652C21.2624 8.652 21.5224 8.664 21.7864 8.688C22.0504 8.704 22.3064 8.744 22.5544 8.808C22.8104 8.872 23.0504 8.964 23.2744 9.084C23.5064 9.204 23.7184 9.36 23.9104 9.552L25.6624 8.376C25.3584 7.96 25.0144 7.636 24.6304 7.404C24.2464 7.164 23.8384 6.984 23.4064 6.864C22.9744 6.744 22.5224 6.668 22.0504 6.636C21.5864 6.604 21.1184 6.588 20.6464 6.588C20.3984 6.588 20.1144 6.608 19.7944 6.648C19.4824 6.68 19.1624 6.736 18.8344 6.816C18.5144 6.896 18.1984 7 17.8864 7.128C17.5824 7.256 17.3104 7.416 17.0704 7.608C16.8304 7.8 16.6384 8.024 16.4944 8.28C16.3504 8.528 16.2784 8.816 16.2784 9.144C16.2784 9.52 16.3704 9.844 16.5544 10.116C16.7384 10.388 16.9824 10.62 17.2864 10.812C17.5904 11.004 17.9344 11.16 18.3184 11.28C18.7024 11.4 19.0904 11.5 19.4824 11.58C19.8824 11.652 20.2664 11.712 20.6344 11.76C21.0104 11.8 21.3384 11.836 21.6184 11.868C21.6984 11.876 21.8544 11.892 22.0864 11.916C22.3264 11.94 22.5744 11.976 22.8304 12.024C23.0864 12.064 23.3144 12.12 23.5144 12.192C23.7144 12.264 23.8144 12.352 23.8144 12.456C23.8144 12.544 23.7504 12.62 23.6224 12.684C23.4944 12.74 23.3304 12.788 23.1304 12.828C22.9304 12.86 22.7104 12.884 22.4704 12.9C22.2304 12.916 21.9944 12.928 21.7624 12.936C21.5384 12.944 21.3344 12.948 21.1504 12.948C20.9744 12.948 20.8504 12.948 20.7784 12.948C20.4744 12.948 20.1744 12.936 19.8784 12.912C19.5824 12.88 19.2944 12.824 19.0144 12.744C18.7344 12.656 18.4704 12.536 18.2224 12.384C17.9744 12.232 17.7504 12.028 17.5504 11.772L15.7144 12.912ZM17.4544 11.472L16.8784 10.884C16.5984 10.676 16.3784 10.432 16.2184 10.152C16.0584 9.864 15.9784 9.528 15.9784 9.144C15.9784 8.776 16.0544 8.452 16.2064 8.172C16.3664 7.884 16.5744 7.636 16.8304 7.428C17.0864 7.22 17.3784 7.044 17.7064 6.9C18.0344 6.748 18.3704 6.628 18.7144 6.54C19.0584 6.452 19.3984 6.388 19.7344 6.348C20.0704 6.308 20.3744 6.288 20.6464 6.288C21.1184 6.288 21.5944 6.304 22.0744 6.336C22.5544 6.36 23.0224 6.432 23.4784 6.552C23.9424 6.672 24.3864 6.856 24.8104 7.104C25.2344 7.352 25.6304 7.7 25.9984 8.148C26.2464 8.396 26.4424 8.604 26.5864 8.772C26.7304 8.932 26.8424 9.068 26.9224 9.18C27.0104 9.292 27.0744 9.384 27.1144 9.456C27.1544 9.52 27.1944 9.58 27.2344 9.636L25.6984 10.668C25.7384 10.708 25.7824 10.744 25.8304 10.776C25.8864 10.8 25.9624 10.852 26.0584 10.932C26.1544 11.012 26.2784 11.128 26.4304 11.28C26.5904 11.424 26.8024 11.632 27.0664 11.904C27.2584 12.104 27.4104 12.36 27.5224 12.672C27.6344 12.984 27.6904 13.312 27.6904 13.656C27.6904 14.016 27.6024 14.336 27.4264 14.616C27.2504 14.896 27.0224 15.14 26.7424 15.348C26.4624 15.556 26.1424 15.732 25.7824 15.876C25.4224 16.02 25.0584 16.136 24.6904 16.224C24.3224 16.312 23.9624 16.376 23.6104 16.416C23.2664 16.456 22.9664 16.476 22.7104 16.476C22.2384 16.476 21.7584 16.476 21.2704 16.476C20.7824 16.476 20.3024 16.436 19.8304 16.356C19.3664 16.276 18.9144 16.144 18.4744 15.96C18.0344 15.776 17.6304 15.496 17.2624 15.12C16.9504 14.832 16.6864 14.58 16.4704 14.364C16.2624 14.14 16.0824 13.94 15.9304 13.764C15.7864 13.58 15.6624 13.412 15.5584 13.26C15.4624 13.108 15.3704 12.96 15.2824 12.816L17.4544 11.472ZM28.5401 7.26H29.5961L33.0761 10.68L36.4961 7.26H37.5401L33.4361 11.352V14.34H32.6921V11.364L28.5401 7.26ZM34.1081 15.012V11.628L39.1361 6.588H36.2321L33.0641 9.78L29.8481 6.588H26.9201L32.0321 11.652V15.012H34.1081ZM31.7321 11.772C31.3001 11.348 30.8481 10.904 30.3761 10.44C29.9121 9.976 29.4401 9.508 28.9601 9.036C28.4801 8.556 28.0041 8.084 27.5321 7.62C27.0601 7.156 26.6121 6.712 26.1881 6.288H29.9681L33.0521 9.36L36.1001 6.288H39.8681L40.9841 7.524L35.5721 12.936V16.476H32.9681L31.7321 15.312V11.772ZM49.5266 14.34L43.0586 8.4V14.34H42.3506V7.26H42.9626L49.4066 13.2V7.26H50.1266V14.34H49.5266ZM50.7986 15.012V6.588H48.7466V11.688L43.1906 6.588H41.6786V15.012H43.7306V9.9L49.2986 15.012H50.7986ZM41.3786 15.312V6.288H43.2986L48.4466 11.004V6.288H51.0986L52.2626 7.524V16.476H50.3906L45.1946 11.712V16.476H42.6146L41.3786 15.312ZM58.6329 7.992C58.1609 7.992 57.7209 8.044 57.3129 8.148C56.9129 8.244 56.5649 8.404 56.2689 8.628C55.9729 8.844 55.7369 9.132 55.5609 9.492C55.3929 9.852 55.3089 10.288 55.3089 10.8C55.3089 11.32 55.3929 11.76 55.5609 12.12C55.7369 12.472 55.9729 12.76 56.2689 12.984C56.5649 13.208 56.9129 13.368 57.3129 13.464C57.7209 13.56 58.1609 13.608 58.6329 13.608H59.9409C60.5009 13.608 61.0449 13.524 61.5729 13.356C62.1089 13.18 62.5689 12.876 62.9529 12.444L63.7209 12.924C63.4969 13.236 63.2409 13.488 62.9529 13.68C62.6649 13.864 62.3569 14.004 62.0289 14.1C61.7009 14.196 61.3569 14.26 60.9969 14.292C60.6449 14.324 60.2929 14.34 59.9409 14.34H58.6329C58.0489 14.34 57.5049 14.28 57.0009 14.16C56.5049 14.032 56.0729 13.828 55.7049 13.548C55.3449 13.26 55.0609 12.892 54.8529 12.444C54.6529 11.996 54.5529 11.448 54.5529 10.8C54.5529 10.152 54.6529 9.604 54.8529 9.156C55.0609 8.708 55.3449 8.344 55.7049 8.064C56.0729 7.776 56.5049 7.572 57.0009 7.452C57.5049 7.324 58.0489 7.26 58.6329 7.26H59.9409C60.2929 7.26 60.6449 7.276 60.9969 7.308C61.3569 7.34 61.7009 7.404 62.0289 7.5C62.3569 7.596 62.6649 7.74 62.9529 7.932C63.2409 8.116 63.4969 8.364 63.7209 8.676L62.9529 9.156C62.5689 8.724 62.1089 8.424 61.5729 8.256C61.0449 8.08 60.5009 7.992 59.9409 7.992H58.6329ZM59.9409 8.664C60.5169 8.664 61.0449 8.772 61.5249 8.988C62.0049 9.196 62.4129 9.54 62.7489 10.02L64.6569 8.892C64.3849 8.428 64.0809 8.048 63.7449 7.752C63.4089 7.448 63.0409 7.212 62.6409 7.044C62.2489 6.868 61.8249 6.748 61.3689 6.684C60.9209 6.62 60.4449 6.588 59.9409 6.588H58.6329C57.9369 6.588 57.2969 6.668 56.7129 6.828C56.1369 6.98 55.6369 7.224 55.2129 7.56C54.7969 7.896 54.4689 8.332 54.2289 8.868C53.9969 9.396 53.8809 10.04 53.8809 10.8C53.8809 11.56 53.9969 12.208 54.2289 12.744C54.4689 13.272 54.7969 13.704 55.2129 14.04C55.6369 14.376 56.1369 14.624 56.7129 14.784C57.2969 14.936 57.9369 15.012 58.6329 15.012H59.9409C60.4449 15.012 60.9209 14.98 61.3689 14.916C61.8249 14.852 62.2489 14.736 62.6409 14.568C63.0409 14.392 63.4089 14.156 63.7449 13.86C64.0809 13.564 64.3849 13.18 64.6569 12.708L62.7489 11.58C62.4129 12.06 62.0049 12.408 61.5249 12.624C61.0449 12.832 60.5169 12.936 59.9409 12.936H58.6329C58.2729 12.936 57.9329 12.9 57.6129 12.828C57.2929 12.756 57.0129 12.64 56.7729 12.48C56.5329 12.312 56.3409 12.092 56.1969 11.82C56.0529 11.548 55.9809 11.208 55.9809 10.8C55.9809 10.4 56.0529 10.064 56.1969 9.792C56.3409 9.52 56.5329 9.3 56.7729 9.132C57.0209 8.964 57.3049 8.844 57.6249 8.772C57.9449 8.7 58.2809 8.664 58.6329 8.664H59.9409ZM55.6809 15.168C55.2249 14.768 54.8609 14.396 54.5889 14.052C54.3169 13.7 54.1049 13.356 53.9529 13.02C53.8009 12.676 53.7009 12.324 53.6529 11.964C53.6049 11.604 53.5809 11.216 53.5809 10.8C53.5809 9.984 53.7049 9.292 53.9529 8.724C54.2009 8.148 54.5489 7.68 54.9969 7.32C55.4449 6.96 55.9769 6.7 56.5929 6.54C57.2169 6.372 57.8969 6.288 58.6329 6.288H59.9409C60.3969 6.288 60.8329 6.308 61.2489 6.348C61.6729 6.38 62.0929 6.476 62.5089 6.636C62.9249 6.796 63.3489 7.036 63.7809 7.356C64.2129 7.676 64.6769 8.12 65.1729 8.688C65.2529 8.776 65.3409 8.88 65.4369 9C65.5329 9.12 65.6249 9.248 65.7129 9.384C65.8009 9.52 65.8889 9.66 65.9769 9.804C66.0649 9.94 66.1449 10.068 66.2169 10.188L63.8769 11.568L62.9649 10.656C62.6849 10.472 62.3929 10.34 62.0889 10.26C61.7849 10.172 61.4689 10.128 61.1409 10.128H59.8329C59.5129 10.128 59.2089 10.16 58.9209 10.224C58.6329 10.288 58.3769 10.392 58.1529 10.536C57.9369 10.68 57.7649 10.872 57.6369 11.112C57.5089 11.352 57.4449 11.648 57.4449 12C57.4449 12.192 57.4609 12.352 57.4929 12.48C57.6609 12.536 57.8409 12.576 58.0329 12.6C58.2249 12.624 58.4249 12.636 58.6329 12.636H59.9409C60.4689 12.636 60.9649 12.524 61.4289 12.3C61.9009 12.076 62.3169 11.704 62.6769 11.184L65.0769 12.6L66.2169 13.812C65.8969 14.356 65.5489 14.8 65.1729 15.144C64.8049 15.488 64.4089 15.756 63.9849 15.948C63.5609 16.148 63.1129 16.284 62.6409 16.356C62.1689 16.436 61.6689 16.476 61.1409 16.476H59.8329C59.4249 16.476 59.0209 16.448 58.6209 16.392C58.2289 16.344 57.8489 16.264 57.4809 16.152C57.1209 16.048 56.7849 15.912 56.4729 15.744C56.1689 15.584 55.9049 15.392 55.6809 15.168Z" fill="#5945E3"/>
<path d="M69.0701 14.604V13.92H69.8141V14.604H69.0701ZM70.4741 15.264V13.26H68.4101V15.264H70.4741ZM68.1101 15.564V12.96H70.7741L71.9381 14.196V16.728H69.3461L68.1101 15.564ZM74.1165 7.26H74.8365V14.34H74.1165V7.26ZM75.4965 6.588H73.4565V15.012H75.4965V6.588ZM73.1565 15.312V6.288H75.7965L76.9605 7.524V16.476H74.3925L73.1565 15.312ZM85.0542 13.608C85.5182 13.608 85.9502 13.56 86.3502 13.464C86.7582 13.36 87.1102 13.2 87.4062 12.984C87.7102 12.76 87.9462 12.472 88.1142 12.12C88.2822 11.76 88.3662 11.32 88.3662 10.8C88.3662 10.288 88.2782 9.852 88.1022 9.492C87.9342 9.132 87.7022 8.844 87.4062 8.628C87.1102 8.404 86.7582 8.244 86.3502 8.148C85.9502 8.044 85.5182 7.992 85.0542 7.992H83.7342C83.2622 7.992 82.8222 8.044 82.4142 8.148C82.0142 8.244 81.6662 8.404 81.3702 8.628C81.0742 8.844 80.8382 9.132 80.6622 9.492C80.4942 9.852 80.4102 10.288 80.4102 10.8C80.4102 11.32 80.4942 11.76 80.6622 12.12C80.8382 12.472 81.0742 12.76 81.3702 12.984C81.6662 13.208 82.0142 13.368 82.4142 13.464C82.8222 13.56 83.2622 13.608 83.7342 13.608H85.0542ZM83.7342 12.936C83.3742 12.936 83.0342 12.9 82.7142 12.828C82.3942 12.756 82.1142 12.64 81.8742 12.48C81.6342 12.312 81.4422 12.092 81.2982 11.82C81.1542 11.548 81.0822 11.208 81.0822 10.8C81.0822 10.4 81.1542 10.064 81.2982 9.792C81.4422 9.52 81.6342 9.3 81.8742 9.132C82.1222 8.964 82.4062 8.844 82.7262 8.772C83.0462 8.7 83.3822 8.664 83.7342 8.664H85.0542C85.4062 8.664 85.7422 8.7 86.0622 8.772C86.3822 8.844 86.6622 8.964 86.9022 9.132C87.1422 9.3 87.3342 9.52 87.4782 9.792C87.6222 10.064 87.6942 10.4 87.6942 10.8C87.6942 11.2 87.6222 11.536 87.4782 11.808C87.3422 12.08 87.1542 12.3 86.9142 12.468C86.6742 12.636 86.3942 12.756 86.0742 12.828C85.7542 12.9 85.4142 12.936 85.0542 12.936H83.7342ZM79.6542 10.8C79.6542 10.152 79.7542 9.604 79.9542 9.156C80.1622 8.708 80.4462 8.344 80.8062 8.064C81.1742 7.776 81.6062 7.572 82.1022 7.452C82.6062 7.324 83.1502 7.26 83.7342 7.26H85.0542C85.6382 7.26 86.1782 7.324 86.6742 7.452C87.1702 7.58 87.5982 7.784 87.9582 8.064C88.3262 8.344 88.6102 8.708 88.8102 9.156C89.0182 9.604 89.1222 10.152 89.1222 10.8C89.1222 11.448 89.0182 11.996 88.8102 12.444C88.6102 12.892 88.3262 13.256 87.9582 13.536C87.5982 13.816 87.1702 14.02 86.6742 14.148C86.1782 14.276 85.6382 14.34 85.0542 14.34H83.7342C83.1502 14.34 82.6062 14.28 82.1022 14.16C81.6062 14.032 81.1742 13.828 80.8062 13.548C80.4462 13.26 80.1622 12.892 79.9542 12.444C79.7542 11.996 79.6542 11.448 79.6542 10.8ZM78.9822 10.8C78.9822 11.56 79.0982 12.208 79.3302 12.744C79.5702 13.272 79.8982 13.704 80.3142 14.04C80.7382 14.376 81.2382 14.624 81.8142 14.784C82.3982 14.936 83.0382 15.012 83.7342 15.012H85.0542C85.7502 15.012 86.3862 14.936 86.9622 14.784C87.5382 14.624 88.0342 14.376 88.4502 14.04C88.8742 13.704 89.2022 13.272 89.4342 12.744C89.6662 12.208 89.7822 11.56 89.7822 10.8C89.7822 10.04 89.6662 9.396 89.4342 8.868C89.2022 8.332 88.8742 7.896 88.4502 7.56C88.0342 7.224 87.5382 6.98 86.9622 6.828C86.3862 6.668 85.7502 6.588 85.0542 6.588H83.7342C83.0382 6.588 82.3982 6.668 81.8142 6.828C81.2382 6.98 80.7382 7.224 80.3142 7.56C79.8982 7.896 79.5702 8.332 79.3302 8.868C79.0982 9.396 78.9822 10.04 78.9822 10.8ZM78.6822 10.8C78.6822 9.984 78.8062 9.292 79.0542 8.724C79.3022 8.148 79.6502 7.68 80.0982 7.32C80.5462 6.96 81.0782 6.7 81.6942 6.54C82.3182 6.372 82.9982 6.288 83.7342 6.288H85.0542C85.5182 6.288 85.9542 6.316 86.3622 6.372C86.7782 6.42 87.1862 6.528 87.5862 6.696C87.9862 6.856 88.3822 7.088 88.7742 7.392C89.1742 7.688 89.5862 8.088 90.0102 8.592C90.3702 8.952 90.6662 9.428 90.8982 10.02C91.1302 10.612 91.2462 11.272 91.2462 12C91.2462 12.808 91.1222 13.496 90.8742 14.064C90.6342 14.632 90.2902 15.092 89.8422 15.444C89.4022 15.804 88.8742 16.064 88.2582 16.224C87.6502 16.392 86.9822 16.476 86.2542 16.476H84.9342C84.1182 16.476 83.3582 16.384 82.6542 16.2C81.9502 16.016 81.3702 15.7 80.9142 15.252C80.4582 14.852 80.0862 14.476 79.7982 14.124C79.5102 13.764 79.2822 13.408 79.1142 13.056C78.9542 12.704 78.8422 12.344 78.7782 11.976C78.7142 11.608 78.6822 11.216 78.6822 10.8ZM85.0542 12.636C85.3662 12.636 85.6622 12.608 85.9422 12.552C86.2302 12.488 86.4822 12.384 86.6982 12.24C86.9142 12.096 87.0822 11.908 87.2022 11.676C87.3302 11.436 87.3942 11.144 87.3942 10.8C87.3942 10.608 87.3702 10.432 87.3222 10.272C86.9942 10.176 86.6382 10.128 86.2542 10.128H84.9342C84.6142 10.128 84.3102 10.16 84.0222 10.224C83.7342 10.288 83.4782 10.392 83.2542 10.536C83.0382 10.68 82.8662 10.872 82.7382 11.112C82.6102 11.352 82.5462 11.648 82.5462 12C82.5462 12.192 82.5622 12.352 82.5942 12.48C82.7622 12.536 82.9422 12.576 83.1342 12.6C83.3262 12.624 83.5262 12.636 83.7342 12.636H85.0542Z" fill="#5945E3"/>
</svg>
