<svg width="1199" height="562" viewBox="0 0 1199 562" fill="none" xmlns="http://www.w3.org/2000/svg">
<path d="M4.6 198L55.8 58H84.6L135.8 198H108.6L97.4 165.6H42.8L31.4 198H4.6ZM49.8 145.6H90.4L70 87.4L49.8 145.6ZM194.234 200.4C185.434 200.4 177.701 199 171.034 196.2C164.368 193.267 159.034 189.267 155.034 184.2C151.034 179.133 148.634 173.267 147.834 166.6H173.634C174.434 170.467 176.568 173.8 180.034 176.6C183.634 179.267 188.234 180.6 193.834 180.6C199.434 180.6 203.501 179.467 206.034 177.2C208.701 174.933 210.034 172.333 210.034 169.4C210.034 165.133 208.168 162.267 204.434 160.8C200.701 159.2 195.501 157.667 188.834 156.2C184.568 155.267 180.234 154.133 175.834 152.8C171.434 151.467 167.368 149.8 163.634 147.8C160.034 145.667 157.101 143 154.834 139.8C152.568 136.467 151.434 132.4 151.434 127.6C151.434 118.8 154.901 111.4 161.834 105.4C168.901 99.4 178.768 96.4 191.434 96.4C203.168 96.4 212.501 99.1333 219.434 104.6C226.501 110.067 230.701 117.6 232.034 127.2H207.834C206.368 119.867 200.834 116.2 191.234 116.2C186.434 116.2 182.701 117.133 180.034 119C177.501 120.867 176.234 123.2 176.234 126C176.234 128.933 178.168 131.267 182.034 133C185.901 134.733 191.034 136.333 197.434 137.8C204.368 139.4 210.701 141.2 216.434 143.2C222.301 145.067 226.968 147.933 230.434 151.8C233.901 155.533 235.634 160.933 235.634 168C235.768 174.133 234.168 179.667 230.834 184.6C227.501 189.533 222.701 193.4 216.434 196.2C210.168 199 202.768 200.4 194.234 200.4Z" fill="white"/>
<path d="M761.031 198V98.8H783.631L785.631 115.6C788.698 109.733 793.098 105.067 798.831 101.6C804.698 98.1333 811.565 96.4 819.431 96.4C831.698 96.4 841.231 100.267 848.031 108C854.831 115.733 858.231 127.067 858.231 142V198H832.631V144.4C832.631 135.867 830.898 129.333 827.431 124.8C823.965 120.267 818.565 118 811.231 118C804.031 118 798.098 120.533 793.431 125.6C788.898 130.667 786.631 137.733 786.631 146.8V198H761.031ZM923.711 200.4C914.911 200.4 907.178 199 900.511 196.2C893.844 193.267 888.511 189.267 884.511 184.2C880.511 179.133 878.111 173.267 877.311 166.6H903.111C903.911 170.467 906.044 173.8 909.511 176.6C913.111 179.267 917.711 180.6 923.311 180.6C928.911 180.6 932.978 179.467 935.511 177.2C938.178 174.933 939.511 172.333 939.511 169.4C939.511 165.133 937.644 162.267 933.911 160.8C930.178 159.2 924.978 157.667 918.311 156.2C914.044 155.267 909.711 154.133 905.311 152.8C900.911 151.467 896.844 149.8 893.111 147.8C889.511 145.667 886.578 143 884.311 139.8C882.044 136.467 880.911 132.4 880.911 127.6C880.911 118.8 884.378 111.4 891.311 105.4C898.378 99.4 908.244 96.4 920.911 96.4C932.644 96.4 941.978 99.1333 948.911 104.6C955.978 110.067 960.178 117.6 961.511 127.2H937.311C935.844 119.867 930.311 116.2 920.711 116.2C915.911 116.2 912.178 117.133 909.511 119C906.978 120.867 905.711 123.2 905.711 126C905.711 128.933 907.644 131.267 911.511 133C915.378 134.733 920.511 136.333 926.911 137.8C933.844 139.4 940.178 141.2 945.911 143.2C951.778 145.067 956.444 147.933 959.911 151.8C963.378 155.533 965.111 160.933 965.111 168C965.244 174.133 963.644 179.667 960.311 184.6C956.978 189.533 952.178 193.4 945.911 196.2C939.644 199 932.244 200.4 923.711 200.4ZM998.789 199.4C994.122 199.4 990.256 197.933 987.189 195C984.256 192.067 982.789 188.533 982.789 184.4C982.789 180.133 984.256 176.533 987.189 173.6C990.256 170.667 994.122 169.2 998.789 169.2C1003.46 169.2 1007.26 170.667 1010.19 173.6C1013.26 176.533 1014.79 180.133 1014.79 184.4C1014.79 188.533 1013.26 192.067 1010.19 195C1007.26 197.933 1003.46 199.4 998.789 199.4ZM1049.64 83.4C1044.97 83.4 1041.1 82 1038.04 79.2C1035.1 76.4 1033.64 72.8667 1033.64 68.6C1033.64 64.3333 1035.1 60.8667 1038.04 58.2C1041.1 55.4 1044.97 54 1049.64 54C1054.3 54 1058.1 55.4 1061.04 58.2C1064.1 60.8667 1065.64 64.3333 1065.64 68.6C1065.64 72.8667 1064.1 76.4 1061.04 79.2C1058.1 82 1054.3 83.4 1049.64 83.4ZM1036.84 198V98.8H1062.44V198H1036.84ZM1136.76 200.4C1127.16 200.4 1118.49 198.2 1110.76 193.8C1103.16 189.4 1097.09 183.333 1092.56 175.6C1088.16 167.733 1085.96 158.667 1085.96 148.4C1085.96 138.133 1088.22 129.133 1092.76 121.4C1097.29 113.533 1103.36 107.4 1110.96 103C1118.69 98.6 1127.36 96.4 1136.96 96.4C1146.42 96.4 1154.96 98.6 1162.56 103C1170.29 107.4 1176.36 113.533 1180.76 121.4C1185.29 129.133 1187.56 138.133 1187.56 148.4C1187.56 158.667 1185.29 167.733 1180.76 175.6C1176.36 183.333 1170.29 189.4 1162.56 193.8C1154.82 198.2 1146.22 200.4 1136.76 200.4ZM1136.76 178.2C1143.42 178.2 1149.22 175.733 1154.16 170.8C1159.09 165.733 1161.56 158.267 1161.56 148.4C1161.56 138.533 1159.09 131.133 1154.16 126.2C1149.22 121.133 1143.49 118.6 1136.96 118.6C1130.16 118.6 1124.29 121.133 1119.36 126.2C1114.56 131.133 1112.16 138.533 1112.16 148.4C1112.16 158.267 1114.56 165.733 1119.36 170.8C1124.29 175.733 1130.09 178.2 1136.76 178.2Z" fill="white"/>
<mask id="path-3-outside-1_32_3" maskUnits="userSpaceOnUse" x="244" y="57" width="506" height="506" fill="black">
<rect fill="white" x="244" y="57" width="506" height="506"/>
<path fill-rule="evenodd" clip-rule="evenodd" d="M247.011 60.0055L247.03 73L314.037 73.7162L374.808 74.957L392.692 78.6031C409.024 83.9189 417.666 87.0884 434.152 102.983C450.637 118.877 462.336 137.941 460.777 139.457C460.386 139.837 449.4 126.184 440.064 118.877C430.728 111.57 407.151 99.8618 393.256 96.0511C379.361 92.2405 376.62 92.8544 316.692 92.2405C247.3 91.957 262.8 91.957 247.3 91.957C247.3 95.2297 247.3 91.957 247.308 105.957C311.95 106.989 247.308 105.957 311.95 106.989C384.017 106.989 388.443 107.5 411.382 118.471C427.231 126.051 439.904 136.28 450.217 149.619C460.531 162.957 460.531 162.957 446.816 154.962C433.101 146.966 405.526 130.255 382.292 126.741C374.765 125.601 349.977 125.172 309.385 125.475C251.245 125.91 255.298 125.457 247.298 125.457C247.289 138.82 247.312 137.373 247.308 138.873H309.005C373.728 138.929 383.419 139.746 403.193 146.81C419.126 152.502 430.236 159.574 444.218 172.925C455.161 183.373 463.407 194.081 461.728 195.66C461.45 195.921 455.902 192.215 449.4 187.426C425.448 169.787 403.725 161.285 375.559 158.527C365.387 157.529 335.962 157.035 303.134 157.308L247.308 157.957C247.308 157.957 247.338 159.457 247.323 163.957C247.308 168.457 247.308 168.457 247.308 168.457L247.323 171.957L316.773 172.532C392.209 173.099 392.209 173.099 415.137 183.625C430.446 190.652 444.227 200.394 454.435 211.403C463.252 220.913 469.33 229.767 467.04 229.767C466.288 229.767 460.817 225.968 454.881 221.327C442.045 211.286 417.779 199.4 400.48 194.681C388.588 191.437 384.841 191.255 318.375 190.72L247.308 189.957V191.457C247.308 191.457 247.306 191.457 247.297 203.957C251.78 203.957 251.611 203.288 315.615 204.088C378.196 204.87 384.246 205.178 395.173 208.133C417.19 214.087 436.516 224.267 452.722 238.447C461.932 246.507 474.937 262.485 474.152 264.776C473.851 265.652 470.47 263.7 466.635 260.435C444.209 241.34 416.231 228.857 385.867 224.404C374.735 222.77 355.192 222.203 309.783 222.197L247.297 221.957C247.297 221.957 247.287 222.957 247.296 225.957C247.304 228.957 247.297 228.957 247.297 232.957C247.297 236.957 247.297 236.957 247.297 236.957L315.235 237.356C376.43 237.365 382.838 237.611 394.803 240.403C429.847 248.579 459.485 268.404 481.164 298.169C485.187 303.694 488.48 309.158 488.48 310.312C488.48 314.269 473.954 333.603 463.243 343.9C443.687 362.703 419.321 375.563 392.187 381.401C380.073 384.009 371.944 384.313 313.677 384.342L247.296 384.957C247.296 384.957 247.296 388.957 247.296 390.957C247.296 392.957 247.295 390.457 247.296 397.457C255.007 397.457 253.007 397.457 320.29 397.222C387.573 396.986 392.692 397.182 392.692 397.182L406.37 393.046C428.669 386.3 449.993 375.034 466.039 361.519C478.326 351.168 476.463 357.193 462.385 373.33C447.408 390.498 420.051 406.588 394.25 413.404C382.673 416.463 378.664 417.221 314.836 417.589C251.007 417.957 251.212 417.957 247 417.957C247 422.457 247.003 426.957 247.003 426.957L247.003 431.364H310.06C345.775 431.364 376.534 430.675 383.624 429.715C409.7 426.186 439.93 412.97 458.933 396.793C471.856 385.793 470.69 391.404 456.673 407.661C445.191 420.98 423.806 435.578 407.476 441.247C386.255 448.614 386.521 448.591 315.594 449.47L247.842 450.311V456.375V462.438L310.922 462.898C353.512 463.209 377.793 462.785 385.674 461.592C408.712 458.104 435.857 445.998 452.601 431.743C461.267 424.366 463.567 424.083 459.884 430.844C452.529 444.347 431.488 461.775 411.591 470.85C388.624 481.324 386.174 481.62 313.258 482.694L247.842 483.658V489.722V495.785L307.028 496.265C368.915 496.768 383.954 495.815 401.973 490.241C416.086 485.878 432.807 477.197 444.364 468.234C450.087 463.796 455.39 460.164 456.149 460.164C458.937 460.164 450.054 472.915 440.975 481.943C424.429 498.399 407.007 507.655 383.791 512.32C374.01 514.286 360.462 514.732 310.375 514.732C263.214 514.732 249.523 514.457 247.843 514.457C247.844 516.457 247.845 514.723 247.844 518.457C247.843 522.191 247.844 515.265 247.843 529.957C265.017 529.957 264.733 529.883 304.614 529.864C359.822 529.836 379.472 528.694 395.807 524.563C409.047 521.215 428.625 511.441 440.064 502.471C445.439 498.257 450.172 495.134 450.582 495.535C452.177 497.087 445.878 506.146 436.424 515.897C424.816 527.872 411.541 535.966 394.25 541.619L381.789 545.69L314.816 546.505L247.842 547.321V553.384V559.447L310.922 559.879C378.981 560.344 386.786 559.758 405.245 552.782C432.149 542.616 453.551 524.058 466.453 499.709C473.998 485.471 476.32 477.597 481.466 448.796C483.7 436.291 486.569 420.261 487.841 413.175C490.928 395.994 494.501 375.708 497.052 360.881C506 308.884 505.737 309.904 512.784 299.776C526.652 279.84 548.502 261.172 570.529 250.442C595.146 238.45 596.073 238.335 675.384 237.412L746.251 236.588V229.767V222.946L687.844 222.5C623.711 222.01 605.784 223.208 585.897 229.309C566.209 235.351 545.856 246.163 530.082 258.96C513.995 272.011 522.252 257.589 540.55 240.673C553.641 228.571 570.771 217.795 585.481 212.406C605.717 204.994 617.49 203.998 684.933 203.998H747.03V197.177V190.356L682.003 190.41C613.747 190.466 603.778 191.204 584.268 197.656C571.646 201.831 550.591 213.322 538.64 222.559C533.248 226.726 528.449 229.759 527.977 229.3C526.462 227.826 536.109 215.65 546.369 206.089C562.002 191.518 579.778 181.421 599.843 175.716C607.893 173.427 618.688 172.945 677.72 172.234L746.251 171.409V164.588V157.767L690.18 157.322C656.389 157.052 627.919 157.54 618.534 158.549C587.762 161.857 565.505 171.108 541.047 190.758C531.293 198.593 531.42 195.075 541.339 182.599C559.369 159.918 585.402 145.305 616.531 140.389C621.97 139.531 653.15 138.838 686.676 138.832L747.03 138.82V131.999V125.178H683.458C645.931 125.178 616.098 125.832 610.643 126.771C587.822 130.703 565.61 140.873 547.359 155.744C531.164 168.939 538.201 155.206 556.876 137.171C572.21 122.362 585.371 115.077 605.933 110.019C617.267 107.231 623.407 106.989 682.642 106.989H747.03V100.197C747.03 94.2565 747.03 100.197 747.03 91.957C742.031 91.957 710.814 91.8343 675.859 92.1874L612.304 92.8286L598.328 96.9682C581.419 101.978 570.605 107.432 555.765 118.435C542.83 128.025 541.473 126.548 551.294 113.566C564.112 96.6196 584.281 83.2232 606.073 77.1783C614.051 74.9652 625.046 74.5029 681.224 74.0118L747.03 73.4358V66.7179V60L688.233 60.047C624.666 60.097 613.163 60.9337 593.314 66.9544C560.893 76.7887 530.189 107.759 520.567 140.336C518.377 147.748 514.727 166.454 507.997 204.756C506.826 211.426 504.727 223.362 503.331 231.282C501.937 239.202 500.386 248.241 499.884 251.366C499.383 254.493 498.443 257.05 497.797 257.05C496.384 257.05 496.306 256.67 488.477 211.577C474.138 128.995 469.906 117.513 444.92 93.347C425.78 74.8364 405.787 64.4327 377.308 60.957C370.197 60.0885 337.383 60 305.852 60C257.519 60.0039 257.519 60.0035 247.011 60.0055Z"/>
</mask>
<path fill-rule="evenodd" clip-rule="evenodd" d="M247.011 60.0055L247.03 73L314.037 73.7162L374.808 74.957L392.692 78.6031C409.024 83.9189 417.666 87.0884 434.152 102.983C450.637 118.877 462.336 137.941 460.777 139.457C460.386 139.837 449.4 126.184 440.064 118.877C430.728 111.57 407.151 99.8618 393.256 96.0511C379.361 92.2405 376.62 92.8544 316.692 92.2405C247.3 91.957 262.8 91.957 247.3 91.957C247.3 95.2297 247.3 91.957 247.308 105.957C311.95 106.989 247.308 105.957 311.95 106.989C384.017 106.989 388.443 107.5 411.382 118.471C427.231 126.051 439.904 136.28 450.217 149.619C460.531 162.957 460.531 162.957 446.816 154.962C433.101 146.966 405.526 130.255 382.292 126.741C374.765 125.601 349.977 125.172 309.385 125.475C251.245 125.91 255.298 125.457 247.298 125.457C247.289 138.82 247.312 137.373 247.308 138.873H309.005C373.728 138.929 383.419 139.746 403.193 146.81C419.126 152.502 430.236 159.574 444.218 172.925C455.161 183.373 463.407 194.081 461.728 195.66C461.45 195.921 455.902 192.215 449.4 187.426C425.448 169.787 403.725 161.285 375.559 158.527C365.387 157.529 335.962 157.035 303.134 157.308L247.308 157.957C247.308 157.957 247.338 159.457 247.323 163.957C247.308 168.457 247.308 168.457 247.308 168.457L247.323 171.957L316.773 172.532C392.209 173.099 392.209 173.099 415.137 183.625C430.446 190.652 444.227 200.394 454.435 211.403C463.252 220.913 469.33 229.767 467.04 229.767C466.288 229.767 460.817 225.968 454.881 221.327C442.045 211.286 417.779 199.4 400.48 194.681C388.588 191.437 384.841 191.255 318.375 190.72L247.308 189.957V191.457C247.308 191.457 247.306 191.457 247.297 203.957C251.78 203.957 251.611 203.288 315.615 204.088C378.196 204.87 384.246 205.178 395.173 208.133C417.19 214.087 436.516 224.267 452.722 238.447C461.932 246.507 474.937 262.485 474.152 264.776C473.851 265.652 470.47 263.7 466.635 260.435C444.209 241.34 416.231 228.857 385.867 224.404C374.735 222.77 355.192 222.203 309.783 222.197L247.297 221.957C247.297 221.957 247.287 222.957 247.296 225.957C247.304 228.957 247.297 228.957 247.297 232.957C247.297 236.957 247.297 236.957 247.297 236.957L315.235 237.356C376.43 237.365 382.838 237.611 394.803 240.403C429.847 248.579 459.485 268.404 481.164 298.169C485.187 303.694 488.48 309.158 488.48 310.312C488.48 314.269 473.954 333.603 463.243 343.9C443.687 362.703 419.321 375.563 392.187 381.401C380.073 384.009 371.944 384.313 313.677 384.342L247.296 384.957C247.296 384.957 247.296 388.957 247.296 390.957C247.296 392.957 247.295 390.457 247.296 397.457C255.007 397.457 253.007 397.457 320.29 397.222C387.573 396.986 392.692 397.182 392.692 397.182L406.37 393.046C428.669 386.3 449.993 375.034 466.039 361.519C478.326 351.168 476.463 357.193 462.385 373.33C447.408 390.498 420.051 406.588 394.25 413.404C382.673 416.463 378.664 417.221 314.836 417.589C251.007 417.957 251.212 417.957 247 417.957C247 422.457 247.003 426.957 247.003 426.957L247.003 431.364H310.06C345.775 431.364 376.534 430.675 383.624 429.715C409.7 426.186 439.93 412.97 458.933 396.793C471.856 385.793 470.69 391.404 456.673 407.661C445.191 420.98 423.806 435.578 407.476 441.247C386.255 448.614 386.521 448.591 315.594 449.47L247.842 450.311V456.375V462.438L310.922 462.898C353.512 463.209 377.793 462.785 385.674 461.592C408.712 458.104 435.857 445.998 452.601 431.743C461.267 424.366 463.567 424.083 459.884 430.844C452.529 444.347 431.488 461.775 411.591 470.85C388.624 481.324 386.174 481.62 313.258 482.694L247.842 483.658V489.722V495.785L307.028 496.265C368.915 496.768 383.954 495.815 401.973 490.241C416.086 485.878 432.807 477.197 444.364 468.234C450.087 463.796 455.39 460.164 456.149 460.164C458.937 460.164 450.054 472.915 440.975 481.943C424.429 498.399 407.007 507.655 383.791 512.32C374.01 514.286 360.462 514.732 310.375 514.732C263.214 514.732 249.523 514.457 247.843 514.457C247.844 516.457 247.845 514.723 247.844 518.457C247.843 522.191 247.844 515.265 247.843 529.957C265.017 529.957 264.733 529.883 304.614 529.864C359.822 529.836 379.472 528.694 395.807 524.563C409.047 521.215 428.625 511.441 440.064 502.471C445.439 498.257 450.172 495.134 450.582 495.535C452.177 497.087 445.878 506.146 436.424 515.897C424.816 527.872 411.541 535.966 394.25 541.619L381.789 545.69L314.816 546.505L247.842 547.321V553.384V559.447L310.922 559.879C378.981 560.344 386.786 559.758 405.245 552.782C432.149 542.616 453.551 524.058 466.453 499.709C473.998 485.471 476.32 477.597 481.466 448.796C483.7 436.291 486.569 420.261 487.841 413.175C490.928 395.994 494.501 375.708 497.052 360.881C506 308.884 505.737 309.904 512.784 299.776C526.652 279.84 548.502 261.172 570.529 250.442C595.146 238.45 596.073 238.335 675.384 237.412L746.251 236.588V229.767V222.946L687.844 222.5C623.711 222.01 605.784 223.208 585.897 229.309C566.209 235.351 545.856 246.163 530.082 258.96C513.995 272.011 522.252 257.589 540.55 240.673C553.641 228.571 570.771 217.795 585.481 212.406C605.717 204.994 617.49 203.998 684.933 203.998H747.03V197.177V190.356L682.003 190.41C613.747 190.466 603.778 191.204 584.268 197.656C571.646 201.831 550.591 213.322 538.64 222.559C533.248 226.726 528.449 229.759 527.977 229.3C526.462 227.826 536.109 215.65 546.369 206.089C562.002 191.518 579.778 181.421 599.843 175.716C607.893 173.427 618.688 172.945 677.72 172.234L746.251 171.409V164.588V157.767L690.18 157.322C656.389 157.052 627.919 157.54 618.534 158.549C587.762 161.857 565.505 171.108 541.047 190.758C531.293 198.593 531.42 195.075 541.339 182.599C559.369 159.918 585.402 145.305 616.531 140.389C621.97 139.531 653.15 138.838 686.676 138.832L747.03 138.82V131.999V125.178H683.458C645.931 125.178 616.098 125.832 610.643 126.771C587.822 130.703 565.61 140.873 547.359 155.744C531.164 168.939 538.201 155.206 556.876 137.171C572.21 122.362 585.371 115.077 605.933 110.019C617.267 107.231 623.407 106.989 682.642 106.989H747.03V100.197C747.03 94.2565 747.03 100.197 747.03 91.957C742.031 91.957 710.814 91.8343 675.859 92.1874L612.304 92.8286L598.328 96.9682C581.419 101.978 570.605 107.432 555.765 118.435C542.83 128.025 541.473 126.548 551.294 113.566C564.112 96.6196 584.281 83.2232 606.073 77.1783C614.051 74.9652 625.046 74.5029 681.224 74.0118L747.03 73.4358V66.7179V60L688.233 60.047C624.666 60.097 613.163 60.9337 593.314 66.9544C560.893 76.7887 530.189 107.759 520.567 140.336C518.377 147.748 514.727 166.454 507.997 204.756C506.826 211.426 504.727 223.362 503.331 231.282C501.937 239.202 500.386 248.241 499.884 251.366C499.383 254.493 498.443 257.05 497.797 257.05C496.384 257.05 496.306 256.67 488.477 211.577C474.138 128.995 469.906 117.513 444.92 93.347C425.78 74.8364 405.787 64.4327 377.308 60.957C370.197 60.0885 337.383 60 305.852 60C257.519 60.0039 257.519 60.0035 247.011 60.0055Z" fill="white"/>
<path fill-rule="evenodd" clip-rule="evenodd" d="M247.011 60.0055L247.03 73L314.037 73.7162L374.808 74.957L392.692 78.6031C409.024 83.9189 417.666 87.0884 434.152 102.983C450.637 118.877 462.336 137.941 460.777 139.457C460.386 139.837 449.4 126.184 440.064 118.877C430.728 111.57 407.151 99.8618 393.256 96.0511C379.361 92.2405 376.62 92.8544 316.692 92.2405C247.3 91.957 262.8 91.957 247.3 91.957C247.3 95.2297 247.3 91.957 247.308 105.957C311.95 106.989 247.308 105.957 311.95 106.989C384.017 106.989 388.443 107.5 411.382 118.471C427.231 126.051 439.904 136.28 450.217 149.619C460.531 162.957 460.531 162.957 446.816 154.962C433.101 146.966 405.526 130.255 382.292 126.741C374.765 125.601 349.977 125.172 309.385 125.475C251.245 125.91 255.298 125.457 247.298 125.457C247.289 138.82 247.312 137.373 247.308 138.873H309.005C373.728 138.929 383.419 139.746 403.193 146.81C419.126 152.502 430.236 159.574 444.218 172.925C455.161 183.373 463.407 194.081 461.728 195.66C461.45 195.921 455.902 192.215 449.4 187.426C425.448 169.787 403.725 161.285 375.559 158.527C365.387 157.529 335.962 157.035 303.134 157.308L247.308 157.957C247.308 157.957 247.338 159.457 247.323 163.957C247.308 168.457 247.308 168.457 247.308 168.457L247.323 171.957L316.773 172.532C392.209 173.099 392.209 173.099 415.137 183.625C430.446 190.652 444.227 200.394 454.435 211.403C463.252 220.913 469.33 229.767 467.04 229.767C466.288 229.767 460.817 225.968 454.881 221.327C442.045 211.286 417.779 199.4 400.48 194.681C388.588 191.437 384.841 191.255 318.375 190.72L247.308 189.957V191.457C247.308 191.457 247.306 191.457 247.297 203.957C251.78 203.957 251.611 203.288 315.615 204.088C378.196 204.87 384.246 205.178 395.173 208.133C417.19 214.087 436.516 224.267 452.722 238.447C461.932 246.507 474.937 262.485 474.152 264.776C473.851 265.652 470.47 263.7 466.635 260.435C444.209 241.34 416.231 228.857 385.867 224.404C374.735 222.77 355.192 222.203 309.783 222.197L247.297 221.957C247.297 221.957 247.287 222.957 247.296 225.957C247.304 228.957 247.297 228.957 247.297 232.957C247.297 236.957 247.297 236.957 247.297 236.957L315.235 237.356C376.43 237.365 382.838 237.611 394.803 240.403C429.847 248.579 459.485 268.404 481.164 298.169C485.187 303.694 488.48 309.158 488.48 310.312C488.48 314.269 473.954 333.603 463.243 343.9C443.687 362.703 419.321 375.563 392.187 381.401C380.073 384.009 371.944 384.313 313.677 384.342L247.296 384.957C247.296 384.957 247.296 388.957 247.296 390.957C247.296 392.957 247.295 390.457 247.296 397.457C255.007 397.457 253.007 397.457 320.29 397.222C387.573 396.986 392.692 397.182 392.692 397.182L406.37 393.046C428.669 386.3 449.993 375.034 466.039 361.519C478.326 351.168 476.463 357.193 462.385 373.33C447.408 390.498 420.051 406.588 394.25 413.404C382.673 416.463 378.664 417.221 314.836 417.589C251.007 417.957 251.212 417.957 247 417.957C247 422.457 247.003 426.957 247.003 426.957L247.003 431.364H310.06C345.775 431.364 376.534 430.675 383.624 429.715C409.7 426.186 439.93 412.97 458.933 396.793C471.856 385.793 470.69 391.404 456.673 407.661C445.191 420.98 423.806 435.578 407.476 441.247C386.255 448.614 386.521 448.591 315.594 449.47L247.842 450.311V456.375V462.438L310.922 462.898C353.512 463.209 377.793 462.785 385.674 461.592C408.712 458.104 435.857 445.998 452.601 431.743C461.267 424.366 463.567 424.083 459.884 430.844C452.529 444.347 431.488 461.775 411.591 470.85C388.624 481.324 386.174 481.62 313.258 482.694L247.842 483.658V489.722V495.785L307.028 496.265C368.915 496.768 383.954 495.815 401.973 490.241C416.086 485.878 432.807 477.197 444.364 468.234C450.087 463.796 455.39 460.164 456.149 460.164C458.937 460.164 450.054 472.915 440.975 481.943C424.429 498.399 407.007 507.655 383.791 512.32C374.01 514.286 360.462 514.732 310.375 514.732C263.214 514.732 249.523 514.457 247.843 514.457C247.844 516.457 247.845 514.723 247.844 518.457C247.843 522.191 247.844 515.265 247.843 529.957C265.017 529.957 264.733 529.883 304.614 529.864C359.822 529.836 379.472 528.694 395.807 524.563C409.047 521.215 428.625 511.441 440.064 502.471C445.439 498.257 450.172 495.134 450.582 495.535C452.177 497.087 445.878 506.146 436.424 515.897C424.816 527.872 411.541 535.966 394.25 541.619L381.789 545.69L314.816 546.505L247.842 547.321V553.384V559.447L310.922 559.879C378.981 560.344 386.786 559.758 405.245 552.782C432.149 542.616 453.551 524.058 466.453 499.709C473.998 485.471 476.32 477.597 481.466 448.796C483.7 436.291 486.569 420.261 487.841 413.175C490.928 395.994 494.501 375.708 497.052 360.881C506 308.884 505.737 309.904 512.784 299.776C526.652 279.84 548.502 261.172 570.529 250.442C595.146 238.45 596.073 238.335 675.384 237.412L746.251 236.588V229.767V222.946L687.844 222.5C623.711 222.01 605.784 223.208 585.897 229.309C566.209 235.351 545.856 246.163 530.082 258.96C513.995 272.011 522.252 257.589 540.55 240.673C553.641 228.571 570.771 217.795 585.481 212.406C605.717 204.994 617.49 203.998 684.933 203.998H747.03V197.177V190.356L682.003 190.41C613.747 190.466 603.778 191.204 584.268 197.656C571.646 201.831 550.591 213.322 538.64 222.559C533.248 226.726 528.449 229.759 527.977 229.3C526.462 227.826 536.109 215.65 546.369 206.089C562.002 191.518 579.778 181.421 599.843 175.716C607.893 173.427 618.688 172.945 677.72 172.234L746.251 171.409V164.588V157.767L690.18 157.322C656.389 157.052 627.919 157.54 618.534 158.549C587.762 161.857 565.505 171.108 541.047 190.758C531.293 198.593 531.42 195.075 541.339 182.599C559.369 159.918 585.402 145.305 616.531 140.389C621.97 139.531 653.15 138.838 686.676 138.832L747.03 138.82V131.999V125.178H683.458C645.931 125.178 616.098 125.832 610.643 126.771C587.822 130.703 565.61 140.873 547.359 155.744C531.164 168.939 538.201 155.206 556.876 137.171C572.21 122.362 585.371 115.077 605.933 110.019C617.267 107.231 623.407 106.989 682.642 106.989H747.03V100.197C747.03 94.2565 747.03 100.197 747.03 91.957C742.031 91.957 710.814 91.8343 675.859 92.1874L612.304 92.8286L598.328 96.9682C581.419 101.978 570.605 107.432 555.765 118.435C542.83 128.025 541.473 126.548 551.294 113.566C564.112 96.6196 584.281 83.2232 606.073 77.1783C614.051 74.9652 625.046 74.5029 681.224 74.0118L747.03 73.4358V66.7179V60L688.233 60.047C624.666 60.097 613.163 60.9337 593.314 66.9544C560.893 76.7887 530.189 107.759 520.567 140.336C518.377 147.748 514.727 166.454 507.997 204.756C506.826 211.426 504.727 223.362 503.331 231.282C501.937 239.202 500.386 248.241 499.884 251.366C499.383 254.493 498.443 257.05 497.797 257.05C496.384 257.05 496.306 256.67 488.477 211.577C474.138 128.995 469.906 117.513 444.92 93.347C425.78 74.8364 405.787 64.4327 377.308 60.957C370.197 60.0885 337.383 60 305.852 60C257.519 60.0039 257.519 60.0035 247.011 60.0055Z" stroke="white" stroke-width="4" mask="url(#path-3-outside-1_32_3)"/>
</svg>
